<?xml version="1.0" encoding="UTF-8" standalone="no"?><!DOCTYPE svg PUBLIC "-//W3C//DTD SVG 1.1//EN" "http://www.w3.org/Graphics/SVG/1.1/DTD/svg11.dtd"><svg width="100%" height="100%" viewBox="0 0 150 150" version="1.1" xmlns="http://www.w3.org/2000/svg" xmlns:xlink="http://www.w3.org/1999/xlink" xml:space="preserve" xmlns:serif="http://www.serif.com/" style="fill-rule:evenodd;clip-rule:evenodd;stroke-miterlimit:2;"><path d="M69.32,149.08c-10.55,-0 -25,-4.48 -37.8,-13.69c-2.36,-1.69 -3.56,-1.41 -5.24,0.79c-4.6,6 -8.89,6.07 -14.13,0.27c-0.869,-1.008 -1.629,-2.104 -2.27,-3.27c-3.14,-5.42 -3.12,-6.14 2.13,-9.59c3,-1.95 3.57,-3.24 1.32,-6.55c-17.84,-26.17 -17.74,-58.67 0.12,-84.91c1.74,-2.55 2.22,-3.85 -0.73,-5.87c-6.07,-4.16 -6.46,-5.67 -1.92,-11.4c2.23,-2.82 5.84,-4.69 9.11,-6.49c2.94,-1.62 4.17,1.18 5.24,3.14c2,3.71 3.81,4.05 7.67,1.61c27.6,-17.45 55.5,-17.46 83.21,-0.22c3.47,2.16 5.65,3.07 7.7,-1.23c2.05,-4.3 5.28,-4.32 8.66,-2c2.51,1.578 4.702,3.613 6.46,6c3.61,5.51 3.29,6.71 -2.19,10.39c-2.65,1.78 -3.1,3.09 -1.21,5.92c18.15,27.28 18.2,58.48 0.18,85.24c-1.71,2.54 -2.1,4 0.82,6c5.72,3.82 6.2,5.5 2,11.11c-2.16,2.86 -5.72,4.89 -9,6.6c-2.94,1.52 -4.58,-1.25 -5.75,-3.39c-2,-3.65 -3.77,-3.74 -7.25,-1.32c-12.66,8.74 -27.31,13.03 -47.13,12.86Zm-15.45,-54.64l0.89,0.95c-6.43,9.26 -12.7,18.63 -19.37,27.72c-2.52,3.44 -2.07,5.21 1.38,7.47c15.06,9.9 31.53,13.17 49.15,10.51c9.913,-1.621 19.322,-5.497 27.5,-11.33c2.46,-1.69 2.95,-3.21 1,-5.64c-2.26,-2.88 -4.28,-5.95 -6.37,-9c-4.7,-6.76 -9.387,-13.523 -14.06,-20.29c1.221,-0.072 2.43,0.281 3.42,1c8.48,5.88 16.953,11.773 25.42,17.68c4.55,3.19 4.76,3.27 7.57,-1.29c15.52,-25.1 15.52,-50.21 -0,-75.33c-2.67,-4.31 -3.27,-4.35 -7.36,-1.47c-8.587,6 -17.177,12.017 -25.77,18.05c-0.872,0.509 -1.785,0.944 -2.73,1.3c6.24,-10.14 12.76,-19.77 19.57,-29.19c2.06,-2.86 1.76,-4.4 -1,-6.39c-22.22,-15.84 -54.12,-15.91 -76.64,-0.19c-2.87,2 -3.76,3.51 -1.41,6.7c6.22,8.45 12.11,17.14 18.09,25.75c0.594,0.968 1.131,1.97 1.61,3c-10.13,-6.07 -19.63,-12.49 -28.92,-19.22c-3,-2.16 -4.58,-2.07 -6.75,1c-15.62,22.39 -15.72,53.63 -0.3,76.24c2.36,3.46 4,3.72 7.39,1.23c9.04,-6.56 18.42,-12.84 27.69,-19.26Z" style="fill:#fff;fill-rule:nonzero;stroke:#dadada;stroke-width:3px;stroke-dasharray:3,3;"/></svg>